<?xml version="1.0" standalone="no"?>
<!DOCTYPE svg PUBLIC "-//W3C//DTD SVG 20010904//EN"
 "http://www.w3.org/TR/2001/REC-SVG-20010904/DTD/svg10.dtd">
<svg version="1.0" xmlns="http://www.w3.org/2000/svg"
 width="967.000000pt" height="967.000000pt" viewBox="0 0 967.000000 967.000000"
 preserveAspectRatio="xMidYMid meet">
<metadata>
Created by potrace 1.11, written by Peter Selinger 2001-2013
</metadata>
<g transform="translate(0.000000,967.000000) scale(0.100000,-0.100000)"
fill="#000000" stroke="none">
<path d="M939 9665 c-1 -5 -1 -14 0 -18 1 -5 -4 -5 -11 0 -7 4 -32 8 -55 9
-38 1 -43 -2 -52 -28 -6 -16 -6 -26 -1 -23 10 6 7 -41 -3 -51 -4 -4 -3 -12 0
-18 11 -18 10 -46 -1 -46 -7 0 -7 -3 1 -8 14 -9 12 -44 -2 -54 -6 -5 -6 -8 2
-8 13 0 12 -38 -2 -59 -5 -9 -4 -12 3 -7 12 7 11 -32 -1 -51 -4 -6 -3 -14 3
-18 5 -3 10 -13 10 -21 0 -9 -5 -12 -11 -8 -8 4 -8 1 -1 -12 6 -11 11 -21 13
-24 1 -3 -3 -15 -9 -27 -10 -18 -9 -24 5 -32 10 -6 13 -11 7 -11 -7 0 -15 -7
-18 -16 -3 -8 -2 -12 3 -9 11 6 9 -35 -2 -52 -4 -6 -3 -14 3 -18 7 -4 7 -12 0
-25 -8 -15 -6 -21 7 -29 10 -6 13 -11 7 -11 -7 0 -15 -7 -18 -16 -3 -8 -2 -12
3 -9 11 6 9 -34 -2 -52 -3 -5 -3 -13 0 -17 11 -11 10 -46 -1 -46 -7 0 -7 -3 1
-8 14 -9 12 -44 -2 -54 -6 -5 -6 -8 2 -8 13 0 12 -38 -2 -59 -5 -9 -4 -12 3
-7 12 7 11 -32 -1 -51 -4 -6 -3 -14 3 -18 5 -3 10 -13 10 -21 0 -9 -5 -12 -11
-8 -8 4 -8 1 -1 -12 12 -23 13 -34 1 -56 -7 -12 -4 -20 8 -27 10 -6 13 -11 7
-11 -7 0 -15 -7 -18 -16 -3 -8 -2 -12 3 -9 11 6 9 -34 -2 -52 -3 -5 -3 -13 0
-17 11 -11 10 -46 -1 -46 -7 0 -7 -3 1 -8 14 -9 12 -44 -2 -54 -6 -5 -6 -8 2
-8 13 0 12 -38 -2 -59 -5 -9 -4 -12 3 -7 12 7 11 -32 -1 -51 -4 -6 -3 -14 3
-18 5 -3 10 -13 10 -21 0 -9 -5 -12 -12 -8 -7 5 -8 3 -3 -6 12 -20 13 -80 1
-80 -7 0 -7 -3 1 -8 14 -9 12 -44 -2 -54 -6 -5 -6 -8 2 -8 13 0 12 -38 -2 -59
-5 -9 -4 -12 3 -7 12 7 11 -32 -1 -51 -4 -6 -3 -14 3 -18 5 -3 10 -13 10 -21
0 -9 -5 -12 -12 -8 -7 5 -8 3 -3 -6 12 -20 13 -100 1 -100 -7 0 -8 -3 -1 -8 6
-4 10 -20 10 -37 0 -16 -4 -33 -10 -37 -7 -5 -6 -8 1 -8 13 0 12 -82 -1 -92
-6 -5 -6 -8 2 -8 12 0 12 -37 0 -57 -4 -6 -3 -15 3 -18 8 -5 8 -11 0 -20 -8
-10 -7 -16 7 -24 10 -6 13 -11 7 -11 -7 0 -15 -7 -18 -16 -3 -8 -2 -12 3 -9
11 6 9 -34 -2 -52 -3 -5 -3 -13 0 -17 11 -11 10 -46 -1 -46 -6 0 -5 -4 3 -9 8
-5 10 -14 5 -22 -10 -17 -13 -49 -4 -49 8 0 6 -37 -3 -46 -4 -4 -3 -12 2 -18
12 -14 20 -106 10 -106 -5 0 -4 -11 1 -25 6 -16 6 -26 -1 -31 -5 -3 -6 -11 -2
-17 5 -7 8 -25 7 -42 -1 -16 3 -35 8 -42 6 -7 5 -14 -3 -19 -8 -4 -9 -3 -5 4
4 7 2 12 -3 12 -13 0 -14 -13 -2 -26 13 -14 25 -58 14 -51 -5 3 -8 -4 -7 -16
1 -12 3 -22 4 -22 1 0 3 -15 5 -32 2 -22 -1 -31 -9 -26 -6 4 -5 -1 2 -10 8 -9
14 -37 14 -62 0 -25 4 -43 9 -39 13 8 11 -10 -3 -24 -9 -9 -9 -12 0 -12 7 0
12 -5 12 -11 0 -5 -5 -7 -12 -3 -7 5 -8 3 -3 -7 10 -15 12 -30 17 -96 1 -23 5
-40 8 -38 3 2 6 -8 6 -21 1 -15 -2 -22 -10 -17 -6 3 -6 1 2 -8 6 -7 12 -28 12
-46 0 -20 5 -33 13 -33 8 0 7 -4 -3 -10 -10 -6 -11 -10 -3 -10 9 0 11 -10 6
-32 -4 -20 -2 -29 4 -25 6 4 8 -3 5 -18 -2 -15 0 -25 7 -25 6 0 11 -5 11 -11
0 -5 -5 -7 -12 -3 -7 5 -8 3 -3 -7 10 -15 16 -43 15 -76 0 -13 4 -23 8 -23 4
0 9 -17 10 -37 2 -21 7 -42 12 -47 5 -5 5 -17 -1 -29 -8 -14 -8 -18 0 -13 10
7 14 -8 14 -56 0 -10 4 -18 9 -18 6 0 8 -9 5 -20 -3 -11 -1 -18 3 -15 5 3 11
1 15 -5 3 -5 2 -10 -3 -10 -5 0 -9 -7 -9 -15 0 -8 5 -15 11 -15 6 0 4 -5 -4
-10 -8 -5 -10 -10 -4 -10 11 0 13 -7 16 -55 1 -14 6 -25 10 -25 4 0 8 -12 8
-26 0 -17 4 -23 12 -18 9 5 9 2 -1 -9 -7 -9 -9 -17 -4 -17 5 0 10 -14 11 -32
2 -18 8 -36 15 -40 9 -6 8 -8 -3 -8 -12 0 -12 -2 -2 -9 7 -4 14 -14 15 -22 2
-8 7 -20 11 -28 6 -9 5 -12 -2 -7 -7 4 -7 -3 1 -23 6 -17 14 -28 18 -25 4 2 6
-8 5 -23 -2 -16 0 -32 4 -38 5 -5 10 -14 12 -20 1 -5 6 -9 9 -8 3 1 4 -14 3
-33 -2 -20 1 -32 6 -29 6 4 10 -8 10 -25 0 -22 4 -29 13 -24 8 5 8 2 -2 -9 -9
-12 -10 -17 -2 -17 7 0 10 -4 6 -9 -3 -5 -1 -12 5 -16 6 -4 8 -11 5 -16 -4 -5
-2 -9 3 -9 5 0 9 -7 10 -15 1 -8 3 -22 4 -30 1 -8 6 -15 11 -15 6 0 8 -3 4 -6
-3 -4 1 -20 9 -36 9 -16 13 -36 10 -43 -3 -8 0 -15 6 -17 6 -2 13 -15 15 -28
2 -13 9 -28 16 -32 6 -4 8 -8 3 -8 -4 0 -1 -12 9 -26 9 -15 13 -24 7 -20 -6 3
-5 -4 1 -18 7 -13 16 -22 21 -19 5 4 6 1 2 -6 -11 -18 15 -70 32 -63 12 4 12
1 2 -18 -8 -15 -8 -20 -1 -16 7 5 10 -1 7 -16 -2 -13 4 -32 13 -42 9 -11 10
-16 4 -12 -21 12 -15 -4 9 -26 13 -11 17 -17 11 -13 -7 3 -13 2 -13 -4 0 -5 5
-11 10 -13 6 -2 12 -13 13 -26 1 -12 6 -21 13 -18 7 3 9 -5 6 -20 -2 -14 0
-24 7 -24 7 0 10 -4 7 -9 -3 -4 3 -19 14 -31 22 -25 26 -35 10 -25 -6 3 -7 -1
-4 -9 3 -9 10 -16 16 -16 5 0 6 -4 3 -10 -3 -5 -2 -10 4 -10 6 0 8 -7 4 -15
-3 -9 3 -25 12 -35 10 -11 15 -20 11 -20 -4 0 0 -7 9 -16 9 -9 14 -22 11 -29
-3 -8 2 -16 10 -19 8 -3 14 -10 14 -16 0 -6 -6 -8 -12 -5 -7 4 -1 -5 14 -18
18 -17 23 -27 15 -30 -9 -4 -9 -6 1 -6 6 -1 12 -10 12 -21 0 -11 5 -20 10 -20
6 0 10 -7 10 -17 0 -9 12 -32 27 -51 15 -20 20 -32 12 -27 -11 7 -12 6 -2 -7
7 -8 9 -19 5 -23 -4 -5 -1 -5 6 -1 7 4 12 1 12 -8 0 -9 5 -16 11 -16 5 0 7 -5
4 -11 -4 -5 1 -19 10 -29 9 -10 14 -23 11 -29 -3 -5 1 -16 9 -25 8 -8 14 -19
13 -23 -2 -5 7 -19 20 -33 12 -13 22 -30 22 -37 0 -7 4 -13 8 -13 4 0 9 -10 9
-22 1 -13 9 -28 17 -34 9 -6 13 -14 9 -17 -3 -4 -1 -7 6 -7 8 0 11 -7 7 -15
-3 -9 1 -18 9 -21 14 -6 31 -41 27 -56 -1 -5 3 -8 9 -8 5 0 8 -4 5 -8 -3 -5 4
-14 14 -22 10 -8 17 -17 14 -21 -2 -4 3 -15 12 -23 10 -11 11 -16 3 -16 -7 0
-3 -8 8 -18 11 -9 23 -27 27 -40 4 -12 12 -19 18 -16 7 5 8 2 3 -6 -4 -7 -3
-15 2 -19 14 -10 53 -80 53 -97 0 -8 3 -14 8 -14 4 0 13 -14 20 -30 8 -17 18
-28 23 -25 5 4 6 -1 3 -9 -3 -9 -1 -16 6 -16 6 0 8 -4 5 -10 -3 -5 -1 -10 5
-10 6 0 8 -5 5 -10 -3 -6 1 -10 9 -10 9 0 16 -3 17 -7 3 -28 9 -47 20 -57 9
-8 10 -8 4 3 -5 9 -4 12 3 7 6 -4 8 -14 5 -23 -5 -12 -3 -14 7 -8 10 6 12 4 7
-9 -4 -10 -1 -19 8 -22 8 -4 12 -10 9 -15 -3 -5 0 -9 5 -9 6 0 10 -3 10 -7 -3
-20 2 -34 11 -28 6 3 10 -1 10 -9 0 -9 5 -16 11 -16 5 0 8 -4 4 -9 -3 -6 3
-14 12 -20 10 -6 14 -11 9 -11 -6 0 -1 -7 10 -16 10 -8 13 -12 5 -8 -9 5 -12
3 -7 -4 4 -7 13 -12 21 -12 8 0 12 -8 10 -19 -2 -11 5 -27 16 -36 10 -10 16
-22 12 -28 -3 -6 -1 -7 5 -3 7 4 12 1 12 -9 0 -9 5 -13 10 -10 6 4 9 3 8 -2
-5 -18 14 -53 30 -54 11 0 13 -2 4 -6 -10 -4 -8 -9 5 -21 20 -19 50 -62 51
-75 0 -5 13 -21 29 -36 16 -15 27 -35 25 -46 -3 -17 -1 -17 7 -5 9 13 11 13
11 -2 0 -10 5 -18 10 -18 6 0 9 -3 9 -7 -4 -23 2 -43 11 -38 5 3 15 -5 22 -19
6 -14 15 -26 20 -26 4 0 8 -9 8 -20 0 -18 11 -25 33 -21 5 1 6 -3 3 -8 -4 -5
1 -16 9 -24 8 -9 15 -20 15 -26 0 -6 5 -11 10 -11 6 0 10 -7 10 -15 0 -8 5
-15 10 -15 6 0 10 -7 10 -15 0 -8 5 -15 10 -15 6 0 10 -7 10 -15 0 -8 7 -15
15 -15 8 0 14 -3 14 -7 -3 -21 2 -33 16 -33 8 0 15 -8 15 -17 0 -9 13 -28 28
-42 15 -14 19 -19 8 -11 -17 12 -17 10 3 -12 13 -15 28 -25 34 -21 6 3 7 1 3
-5 -3 -6 -1 -14 5 -17 5 -4 8 -13 5 -21 -3 -8 -2 -13 2 -11 13 4 48 -39 44
-53 -3 -9 1 -11 12 -7 9 4 15 3 12 -1 -6 -10 49 -73 58 -67 3 3 4 2 1 -1 -8
-12 16 -45 27 -38 7 5 8 2 3 -6 -5 -7 2 -20 17 -34 13 -11 19 -19 13 -16 -6 3
-3 -2 7 -12 10 -9 18 -21 18 -28 0 -6 4 -8 10 -5 5 3 10 -1 10 -9 0 -8 11 -23
25 -34 13 -11 21 -22 18 -26 -3 -3 1 -6 11 -6 9 0 14 -5 11 -10 -3 -6 -1 -10
4 -10 6 0 11 -6 11 -14 0 -8 11 -23 25 -34 13 -11 22 -22 19 -25 -3 -3 4 -8
15 -12 12 -3 21 -13 21 -21 0 -8 5 -14 10 -14 6 0 10 -7 10 -16 0 -8 4 -12 10
-9 5 3 10 -1 10 -10 0 -9 4 -13 10 -10 5 3 10 -3 10 -15 0 -14 4 -19 12 -14 8
5 9 2 5 -9 -3 -9 -3 -16 1 -14 13 4 54 -41 47 -52 -3 -7 -3 -10 2 -9 5 2 22
-10 38 -26 17 -16 21 -23 10 -15 -18 13 -19 13 -6 -3 7 -10 21 -18 30 -18 14
0 14 -2 1 -10 -11 -7 -11 -10 -2 -10 16 0 63 -46 55 -54 -4 -3 1 -6 11 -6 9 0
15 -4 12 -9 -3 -5 1 -11 9 -15 8 -3 15 -13 15 -21 0 -9 4 -14 8 -11 4 2 14 1
22 -5 13 -7 13 -9 0 -9 -9 0 -5 -7 11 -18 15 -10 24 -23 21 -32 -3 -8 -1 -12
3 -8 8 8 75 -56 75 -72 0 -6 4 -8 10 -5 6 3 10 -1 10 -10 0 -8 7 -18 15 -21 8
-4 12 -10 9 -15 -3 -5 5 -9 18 -9 18 0 20 -2 8 -10 -13 -8 -13 -10 1 -10 9 0
20 -7 23 -16 3 -9 11 -12 18 -8 8 5 9 2 5 -9 -4 -10 -2 -16 6 -14 7 1 11 -3
10 -10 -2 -8 4 -10 14 -6 12 5 15 2 10 -10 -3 -9 -1 -19 5 -23 7 -5 8 -2 3 7
-4 8 2 4 14 -8 11 -12 21 -27 21 -33 0 -5 5 -10 10 -10 6 0 10 -7 10 -15 0 -9
6 -12 15 -8 9 3 15 2 14 -3 -1 -5 -1 -16 0 -24 1 -12 3 -13 10 -1 7 11 10 9
16 -8 3 -12 11 -19 16 -16 5 4 9 -4 9 -17 0 -30 10 -44 38 -52 12 -4 20 -12
17 -17 -3 -5 2 -6 11 -2 12 4 15 3 10 -5 -5 -8 0 -12 14 -12 12 0 19 -4 16 -9
-3 -5 2 -15 11 -22 14 -12 16 -12 8 0 -5 10 -4 12 3 7 7 -4 12 -14 12 -22 0
-8 4 -13 8 -10 5 3 14 -4 22 -14 8 -10 18 -16 23 -13 6 3 7 1 3 -5 -9 -15 47
-66 60 -54 4 4 4 2 1 -4 -4 -6 5 -20 20 -30 14 -11 35 -29 46 -41 11 -13 30
-23 41 -24 12 0 15 -3 9 -6 -15 -6 -1 -23 35 -42 12 -7 20 -16 17 -21 -5 -9
33 -26 48 -22 5 1 6 -2 2 -8 -7 -11 13 -33 35 -38 8 -2 17 -8 18 -13 2 -5 10
-9 18 -9 8 0 14 -7 14 -15 0 -8 4 -15 10 -15 5 0 20 -11 34 -25 16 -16 26 -20
29 -12 3 7 6 4 6 -5 1 -10 5 -18 11 -18 5 0 21 -11 35 -25 14 -14 25 -23 25
-19 0 3 6 1 13 -5 8 -6 18 -7 22 -3 5 4 5 1 1 -5 -4 -8 -1 -13 9 -13 8 0 18
-6 21 -14 3 -8 12 -12 20 -9 7 3 16 -1 19 -9 4 -9 17 -13 40 -10 19 2 32 8 29
13 -8 13 10 11 25 -3 10 -11 11 -9 5 6 -5 13 -4 17 4 12 7 -4 12 -2 12 4 0 6
5 8 10 5 6 -3 10 -1 10 5 0 6 5 8 10 5 6 -3 13 1 16 10 4 9 13 14 20 11 8 -3
13 0 11 7 -1 7 4 11 11 9 6 -1 11 2 10 7 -2 5 -1 8 2 7 11 -3 38 29 32 38 -3
5 3 6 12 3 13 -5 19 -1 23 13 3 11 9 17 14 15 4 -3 11 1 16 9 4 8 13 15 18 15
6 1 10 5 10 10 0 5 4 13 9 18 5 5 6 3 2 -4 -14 -25 7 -12 46 27 21 23 50 45
64 51 17 6 24 14 20 24 -3 9 0 15 8 15 8 0 16 7 20 15 3 8 12 15 20 15 7 0 17
7 20 16 3 9 11 12 18 8 7 -4 10 -4 6 1 -4 4 4 16 17 27 14 11 23 23 20 28 -3
4 9 13 27 19 17 6 29 14 25 17 -10 10 17 32 33 26 8 -3 12 -2 8 3 -9 10 62 76
74 69 5 -3 12 3 15 15 3 11 9 18 14 15 5 -3 9 2 9 11 0 9 5 13 11 9 8 -4 9 1
4 16 -5 15 -4 20 4 16 6 -4 11 -2 11 4 0 6 5 8 12 4 8 -5 9 -2 5 9 -4 11 -1
17 8 17 8 0 15 5 15 11 0 5 4 7 10 4 6 -4 7 1 3 11 -4 12 -3 15 5 10 7 -4 12
-1 12 9 0 9 4 14 8 11 10 -6 43 30 35 38 -6 6 12 10 30 7 4 0 7 3 7 8 0 16 46
61 54 53 4 -4 6 -2 4 4 -1 7 9 23 25 37 15 14 27 31 27 37 0 5 5 10 11 10 5 0
7 5 4 10 -3 6 1 10 9 10 9 0 16 5 16 11 0 5 5 7 10 4 6 -4 9 -3 8 2 -4 13 44
63 55 56 6 -3 7 -1 4 4 -8 12 29 58 46 58 7 0 11 8 11 18 -2 15 3 18 23 16 3
0 12 13 19 30 7 17 20 31 28 31 10 0 13 6 9 17 -4 11 -3 14 6 9 8 -5 14 -1 18
13 3 11 9 18 14 15 5 -3 9 1 9 8 0 17 36 49 45 40 3 -4 3 1 -1 11 -3 10 -1 17
5 17 6 0 11 7 11 16 0 8 4 13 9 10 5 -3 12 1 15 10 3 8 11 12 16 9 6 -4 9 -1
8 7 -2 7 3 12 11 10 12 -3 12 0 1 13 -11 13 -10 15 4 9 10 -4 18 0 22 10 3 9
11 13 16 10 6 -4 5 3 -1 15 -10 17 -9 20 4 15 9 -4 15 -1 15 7 0 8 14 25 30
38 29 23 42 49 18 35 -8 -4 -10 -3 -5 2 5 5 12 9 16 9 15 0 71 67 65 78 -4 7
-4 9 0 5 11 -9 43 24 38 40 -2 6 3 12 11 12 9 0 19 5 23 12 5 7 2 8 -7 3 -8
-4 1 6 20 24 19 17 31 31 27 31 -3 0 6 12 21 27 16 16 31 33 33 38 3 6 9 9 13
7 5 -1 6 2 2 8 -3 5 -1 10 6 10 7 0 9 3 6 6 -4 4 6 18 21 30 15 13 23 24 17
24 -5 0 1 7 13 16 12 8 20 20 17 25 -4 5 1 12 10 15 8 4 14 14 13 23 -2 10 3
15 15 15 10 -1 16 1 13 4 -4 3 4 17 16 31 19 21 20 23 3 11 -18 -14 -19 -14
-7 2 8 10 22 20 33 23 11 4 17 11 14 16 -4 5 7 21 22 36 15 14 21 23 13 19 -8
-4 -5 1 7 12 12 11 19 22 16 26 -4 3 2 6 11 6 10 0 16 5 14 12 -3 7 6 22 20
35 14 13 21 27 16 34 -4 8 -3 9 4 5 7 -4 17 3 24 18 6 14 18 26 27 26 14 0 14
2 1 10 -8 5 -10 10 -4 10 7 0 15 11 18 25 4 14 10 24 15 21 4 -3 13 6 20 20 6
14 16 22 21 19 6 -4 9 -3 8 2 -4 17 14 53 24 47 7 -5 9 -1 5 9 -4 11 -1 17 9
17 8 0 13 4 9 9 -3 6 0 13 7 18 7 4 20 17 28 27 13 18 13 19 0 11 -11 -6 -10
-3 3 12 9 11 14 23 10 28 -5 4 -3 6 2 3 6 -3 15 0 22 7 10 11 10 15 0 18 -7 3
-5 6 5 6 9 1 20 10 23 21 4 11 10 18 15 15 5 -3 7 4 5 15 -2 11 0 18 4 15 5
-2 15 3 22 12 10 12 10 14 2 9 -7 -4 -13 -3 -13 3 0 5 9 13 20 16 11 4 18 10
15 15 -3 5 -1 11 5 15 6 4 8 11 5 16 -5 8 7 13 26 11 4 -1 5 8 2 18 -3 12 0
20 7 20 7 0 10 7 7 14 -4 11 -1 13 11 9 9 -3 14 -3 10 2 -11 11 11 47 24 39 6
-4 8 -3 5 3 -4 6 3 22 14 37 11 14 17 31 13 37 -4 7 -3 9 4 5 6 -3 13 3 17 14
3 11 11 20 16 20 6 0 8 4 4 9 -3 6 2 14 11 19 11 6 15 17 12 30 -4 15 -2 19 8
15 9 -3 14 1 14 12 0 9 4 13 10 10 5 -3 7 0 4 8 -3 8 2 20 11 27 8 7 15 19 15
27 0 8 5 11 12 7 7 -4 8 -3 4 5 -4 6 0 18 9 27 9 9 14 23 11 31 -3 8 -2 11 3
8 5 -3 12 4 16 15 3 11 11 20 16 20 5 0 9 7 9 15 0 8 9 24 20 35 11 11 17 20
14 20 -4 0 0 8 7 17 12 15 12 16 -1 8 -12 -7 -13 -6 -3 7 7 8 9 19 5 24 -4 4
1 2 11 -5 15 -12 17 -12 11 3 -3 9 -1 16 5 16 6 0 11 9 11 20 0 11 5 20 11 20
5 0 7 5 4 10 -3 6 -1 10 4 10 6 0 10 6 9 13 -2 6 3 11 10 9 8 -1 11 2 8 7 -4
5 0 16 8 24 11 11 12 17 3 26 -9 9 -9 12 -1 9 7 -2 13 2 15 7 1 6 9 15 17 21
8 6 12 16 8 22 -4 7 -3 12 2 12 13 0 33 50 26 63 -4 7 -4 9 0 5 11 -10 34 14
29 29 -3 7 0 13 7 13 7 0 10 7 6 16 -4 10 -2 13 6 8 8 -5 9 -2 5 9 -4 10 -2
16 6 14 7 -1 12 8 11 20 0 12 3 20 7 18 9 -6 31 20 23 28 -3 3 3 19 15 35 11
16 18 32 14 36 -3 3 -1 6 6 6 7 0 10 4 6 9 -3 5 0 13 6 16 5 4 8 13 5 21 -3 8
0 13 7 11 7 -1 11 4 9 11 -1 6 3 12 9 12 5 0 8 4 5 9 -9 14 5 42 18 34 6 -3 8
-3 4 1 -3 4 5 30 18 57 14 27 22 54 18 61 -4 6 -3 8 4 4 10 -6 49 89 44 108
-2 5 4 6 12 3 10 -4 14 0 11 14 -2 10 -1 19 3 19 4 0 13 9 20 21 8 12 9 18 3
14 -6 -3 -11 -1 -11 5 0 6 7 13 15 16 8 4 13 9 10 13 -2 4 2 19 10 34 7 14 11
28 7 31 -3 3 0 6 6 6 7 0 11 3 11 8 -4 19 24 71 34 65 7 -4 6 1 -2 10 -9 12
-10 17 -2 17 7 0 10 4 6 9 -3 5 1 15 8 23 8 7 13 21 11 31 -1 9 2 15 7 11 9
-5 13 9 10 34 -1 6 3 12 9 12 6 0 8 5 5 10 -3 6 -1 10 5 10 6 0 9 4 5 9 -3 5
-1 12 4 16 5 3 8 14 6 25 -2 12 0 18 6 15 5 -4 10 -1 10 4 1 6 3 16 4 21 1 6
3 19 4 31 0 11 5 18 10 15 5 -4 7 3 4 14 -3 12 0 20 6 20 7 0 9 4 6 10 -3 5 2
21 11 35 9 14 13 25 9 25 -4 0 -2 7 5 15 6 8 9 19 5 25 -3 5 -1 10 5 10 6 0 8
5 4 11 -3 6 -3 14 2 18 18 13 33 51 27 67 -5 13 -3 15 7 9 10 -6 12 -4 7 8 -3
9 -1 22 7 29 7 7 10 22 8 35 -3 14 1 23 8 23 7 0 10 7 6 15 -3 8 -1 15 5 15 6
0 9 7 6 15 -4 8 -2 17 4 21 6 3 8 12 5 20 -3 8 -1 14 5 14 6 0 5 8 -2 21 -6
12 -7 19 -1 15 5 -3 12 1 16 9 3 8 0 17 -6 21 -7 5 -5 11 6 20 11 7 15 18 10
25 -4 8 -3 10 4 5 7 -4 12 -1 12 8 0 26 1 30 13 45 10 12 9 13 -3 6 -13 -8
-13 -7 -1 8 7 9 10 17 6 17 -4 0 -2 7 5 15 7 8 9 15 6 15 -4 0 -2 10 5 21 9
17 8 23 -2 30 -11 7 -10 9 3 9 11 0 16 6 13 20 -2 11 0 20 5 20 5 0 7 9 5 20
-2 11 0 20 5 20 4 0 7 8 6 18 -2 9 2 20 8 25 8 5 6 10 -4 17 -13 8 -13 10 2
10 11 0 15 6 11 20 -3 13 0 20 8 20 11 0 11 2 -1 10 -11 7 -11 10 -2 10 7 0
10 5 7 10 -3 6 -1 10 5 10 7 0 8 6 0 19 -7 14 -7 22 0 26 6 4 8 11 5 16 -4 5
-2 9 4 9 5 0 8 9 6 20 -2 11 0 20 5 20 9 0 8 19 -3 37 -4 6 -2 15 4 19 8 5 9
3 4 -6 -5 -8 -4 -11 2 -7 6 4 8 19 5 33 -4 20 -2 25 8 19 9 -6 10 -3 1 12 -7
15 -7 25 3 39 10 13 11 24 5 36 -7 12 -6 18 2 18 6 0 9 7 5 15 -3 8 0 15 7 15
8 0 6 4 -3 10 -11 7 -11 10 -2 10 7 0 11 4 8 9 -4 5 0 12 6 14 10 4 9 6 -1 6
-11 1 -11 4 0 18 12 15 12 16 -1 8 -12 -7 -13 -6 -4 6 11 14 14 32 14 77 0 12
6 22 13 22 8 0 7 4 -3 10 -12 8 -12 10 -1 10 11 0 11 3 1 15 -10 12 -10 15 0
15 8 0 11 15 8 49 -1 27 1 47 6 44 5 -3 7 6 4 21 -3 14 -1 26 4 26 5 0 4 9 -2
19 -7 14 -7 22 1 27 6 3 9 19 7 35 -3 17 0 29 6 29 7 0 7 3 1 8 -13 9 -15 53
-2 45 6 -4 8 1 4 10 -3 10 -2 17 4 17 6 0 7 6 1 17 -6 9 -6 29 -2 45 6 18 5
28 -2 28 -6 0 -6 6 2 15 10 12 10 15 -1 15 -10 0 -10 3 -2 11 6 6 9 18 6 25
-3 8 -1 14 4 14 10 0 9 63 -2 79 -3 6 -1 11 5 11 6 0 8 5 5 11 -10 15 -12 99
-3 99 4 0 3 11 -2 25 -7 18 -6 25 3 25 8 0 7 4 -3 10 -8 5 -10 10 -3 10 13 0
13 266 0 288 -5 7 -3 12 3 12 6 0 8 5 5 11 -8 12 -12 99 -5 99 9 0 5 345 -4
359 -7 10 -6 12 4 6 10 -6 12 -4 6 11 -12 29 -12 104 -1 105 6 0 1 4 -10 9
-13 6 -15 9 -5 9 11 1 15 12 14 40 -1 21 -4 43 -8 49 -3 6 -2 13 3 16 10 7 8
246 -3 264 -4 7 -4 12 1 12 4 0 6 36 3 80 -3 50 -1 80 5 80 6 0 3 5 -5 10 -9
6 -10 10 -3 10 8 0 10 38 7 141 -2 77 -6 144 -9 150 -4 5 -1 9 6 9 8 0 8 4 -1
15 -10 12 -10 15 1 15 11 0 11 2 -1 10 -13 9 -13 10 0 10 13 0 13 1 0 10 -8 5
-10 10 -4 10 7 0 9 15 4 45 -5 30 -3 45 4 45 6 0 4 5 -4 10 -12 8 -12 10 -1
10 11 0 11 3 0 17 -8 9 -9 14 -3 10 13 -8 14 240 1 261 -5 6 -5 12 0 12 4 0 6
36 3 80 -3 50 -1 80 5 80 6 0 3 5 -5 10 -10 6 -11 10 -3 10 9 0 10 7 2 28 -6
15 -10 28 -10 30 4 14 -2 13 -14 -2 -10 -13 -15 -15 -15 -6 0 7 -3 10 -7 7 -3
-4 -12 -2 -20 4 -9 8 -13 8 -13 0 0 -10 -63 -6 -82 5 -4 2 -10 -1 -14 -7 -4
-8 -3 -9 4 -5 7 4 12 2 12 -3 0 -14 -2 -14 -36 4 -25 13 -30 13 -40 1 -9 -12
-12 -12 -22 2 -7 9 -10 11 -7 4 7 -13 -20 -12 -42 1 -8 5 -13 4 -13 -2 0 -10
-64 -6 -82 5 -4 2 -10 -1 -14 -7 -4 -8 -3 -9 4 -5 7 4 12 2 12 -3 0 -14 -2
-14 -36 4 -25 13 -30 13 -40 1 -9 -12 -12 -12 -22 2 -7 9 -10 11 -7 4 7 -13
-20 -12 -42 1 -8 5 -13 4 -13 -2 0 -10 -64 -6 -82 5 -4 2 -10 -1 -14 -7 -4 -8
-3 -9 4 -5 7 4 12 2 12 -3 0 -14 -2 -14 -36 4 -25 13 -30 13 -40 1 -9 -12 -12
-12 -22 2 -7 9 -10 11 -7 4 7 -13 -20 -12 -42 1 -8 5 -13 4 -13 -2 0 -10 -64
-6 -82 5 -4 2 -10 -1 -14 -7 -4 -8 -3 -9 4 -5 7 4 12 2 12 -3 0 -14 -2 -14
-36 4 -25 13 -30 13 -40 1 -9 -12 -12 -12 -22 2 -7 9 -10 11 -7 4 7 -13 -20
-12 -42 1 -8 5 -13 4 -13 -2 0 -10 -64 -6 -82 5 -4 2 -10 -1 -14 -7 -4 -8 -3
-9 4 -5 7 4 12 2 12 -3 0 -14 -2 -14 -36 4 -25 13 -30 13 -40 1 -9 -12 -12
-12 -22 2 -7 9 -10 11 -7 4 7 -13 -20 -12 -42 1 -8 5 -13 4 -13 -2 0 -10 -64
-6 -82 5 -4 2 -10 -1 -14 -7 -4 -8 -3 -9 4 -5 7 4 12 2 12 -3 0 -14 -2 -14
-36 4 -25 13 -30 13 -40 1 -9 -12 -12 -12 -22 2 -7 9 -10 11 -7 4 7 -13 -20
-12 -42 1 -8 5 -13 4 -13 -2 0 -10 -64 -6 -82 5 -4 2 -10 -1 -14 -7 -4 -8 -3
-9 4 -5 7 4 12 2 12 -3 0 -14 -2 -14 -36 4 -25 13 -30 13 -40 1 -9 -12 -12
-12 -22 2 -7 9 -10 11 -7 4 7 -13 -20 -12 -42 1 -8 5 -13 4 -13 -2 0 -10 -64
-6 -82 5 -4 2 -10 -1 -14 -7 -4 -8 -3 -9 4 -5 7 4 12 2 12 -3 0 -14 -2 -14
-36 4 -25 13 -30 13 -40 1 -9 -12 -12 -12 -22 2 -7 9 -10 11 -7 4 7 -13 -20
-12 -42 1 -8 5 -13 4 -13 -2 0 -10 -64 -6 -82 5 -4 2 -10 -1 -14 -7 -4 -8 -3
-9 4 -5 7 4 12 2 12 -3 0 -14 -2 -14 -36 4 -25 13 -30 13 -40 1 -9 -12 -12
-12 -22 2 -7 9 -10 11 -7 4 7 -13 -20 -12 -42 1 -8 5 -13 4 -13 -2 0 -10 -64
-6 -82 5 -4 2 -10 -1 -14 -7 -4 -8 -3 -9 4 -5 7 4 12 2 12 -3 0 -14 -2 -14
-36 4 -25 13 -30 13 -40 1 -9 -12 -12 -12 -22 2 -7 9 -10 11 -7 4 7 -13 -20
-12 -42 1 -8 5 -13 4 -13 -2 0 -10 -64 -6 -82 5 -4 2 -10 -1 -14 -7 -4 -8 -3
-9 4 -5 7 4 12 2 12 -3 0 -14 -2 -14 -36 4 -25 13 -30 13 -40 1 -9 -12 -12
-12 -22 2 -7 9 -10 11 -7 4 7 -13 -20 -12 -42 1 -8 5 -13 4 -13 -2 0 -10 -64
-6 -82 5 -4 2 -10 -1 -14 -7 -4 -8 -3 -9 4 -5 7 4 12 2 12 -3 0 -14 -2 -14
-36 4 -25 13 -30 13 -40 1 -9 -12 -12 -12 -22 2 -7 9 -10 11 -7 4 7 -13 -20
-12 -42 1 -8 5 -13 4 -13 -2 0 -10 -64 -6 -82 5 -4 2 -10 -1 -14 -7 -4 -8 -3
-9 4 -5 7 4 12 2 12 -3 0 -14 -2 -14 -36 4 -25 13 -30 13 -40 1 -9 -12 -12
-12 -22 2 -7 9 -10 11 -7 4 7 -13 -20 -12 -42 1 -8 5 -13 4 -13 -2 0 -10 -64
-6 -82 5 -4 2 -10 -1 -14 -7 -4 -8 -3 -9 4 -5 7 4 12 2 12 -3 0 -14 -2 -14
-36 4 -25 13 -30 13 -40 1 -9 -12 -12 -12 -22 2 -7 9 -10 11 -7 4 7 -13 -20
-12 -42 1 -8 5 -13 4 -13 -2 0 -10 -64 -6 -82 5 -4 2 -10 -1 -14 -7 -4 -8 -3
-9 4 -5 7 4 12 2 12 -3 0 -14 -2 -14 -36 4 -25 13 -30 13 -40 1 -9 -12 -12
-12 -22 2 -7 9 -10 11 -7 4 7 -13 -20 -12 -42 1 -8 5 -13 4 -13 -2 0 -10 -64
-6 -82 5 -4 2 -10 -1 -14 -7 -4 -8 -3 -9 4 -5 7 4 12 2 12 -3 0 -14 -2 -14
-36 4 -25 13 -30 13 -40 1 -9 -12 -12 -12 -22 2 -7 9 -10 11 -7 4 7 -13 -20
-12 -42 1 -8 5 -13 4 -13 -2 0 -10 -64 -6 -82 5 -4 2 -10 -1 -14 -7 -4 -8 -3
-9 4 -5 7 4 12 2 12 -3 0 -14 -2 -14 -36 4 -25 13 -30 13 -40 1 -9 -12 -12
-12 -22 2 -7 9 -10 11 -7 4 7 -13 -20 -12 -42 1 -8 5 -13 4 -13 -2 0 -10 -64
-6 -82 5 -4 2 -10 -1 -14 -7 -4 -8 -3 -9 4 -5 7 4 12 2 12 -3 0 -14 -2 -14
-36 4 -25 13 -30 13 -40 1 -9 -12 -12 -12 -22 2 -7 9 -10 11 -7 4 7 -13 -20
-12 -42 1 -8 5 -13 4 -13 -2 0 -10 -64 -6 -82 5 -4 2 -10 -1 -14 -7 -4 -8 -3
-9 4 -5 7 4 12 2 12 -3 0 -14 -2 -14 -36 4 -25 13 -30 13 -40 1 -9 -12 -12
-12 -22 2 -7 9 -10 11 -7 4 7 -13 -20 -12 -42 1 -8 5 -13 4 -13 -2 0 -10 -64
-6 -82 5 -4 2 -10 -1 -14 -7 -4 -8 -3 -9 4 -5 7 4 12 2 12 -3 0 -14 -2 -14
-36 4 -25 13 -30 13 -40 1 -9 -12 -12 -12 -22 2 -7 9 -10 11 -7 4 7 -13 -20
-12 -42 1 -8 5 -13 4 -13 -2 0 -10 -64 -6 -82 5 -4 2 -10 -1 -14 -7 -4 -8 -3
-9 4 -5 7 4 12 2 12 -3 0 -14 -2 -14 -36 4 -25 13 -30 13 -40 1 -9 -12 -12
-12 -22 2 -7 9 -10 11 -7 4 7 -13 -20 -12 -42 1 -8 5 -13 4 -13 -2 0 -10 -64
-6 -82 5 -4 2 -10 -1 -14 -7 -4 -8 -3 -9 4 -5 7 4 12 2 12 -3 0 -14 -2 -14
-36 4 -25 13 -30 13 -40 1 -9 -12 -12 -12 -22 2 -7 9 -10 11 -7 4 7 -13 -20
-12 -42 1 -8 5 -13 4 -13 -2 0 -10 -64 -6 -82 5 -4 2 -10 -1 -14 -7 -4 -8 -3
-9 4 -5 7 4 12 2 12 -3 0 -14 -2 -14 -36 4 -25 13 -30 13 -40 1 -9 -12 -12
-12 -22 2 -7 9 -10 11 -7 4 7 -13 -20 -12 -42 1 -8 5 -13 4 -13 -2 0 -10 -64
-6 -82 5 -4 2 -10 -1 -14 -7 -4 -8 -3 -9 4 -5 7 4 12 2 12 -3 0 -14 -2 -14
-36 4 -25 13 -30 13 -40 1 -9 -12 -12 -12 -22 2 -7 9 -10 11 -7 4 7 -13 -20
-12 -42 1 -8 5 -13 4 -13 -2 0 -10 -64 -6 -82 5 -4 2 -10 -1 -14 -7 -4 -8 -3
-9 4 -5 7 4 12 2 12 -3 0 -14 -2 -14 -36 4 -25 13 -30 13 -40 1 -9 -12 -12
-12 -22 2 -7 9 -10 11 -7 4 7 -13 -20 -12 -42 1 -8 5 -13 4 -13 -2 0 -10 -64
-6 -82 5 -4 2 -10 -1 -14 -7 -4 -8 -3 -9 4 -5 7 4 12 2 12 -3 0 -14 -2 -14
-36 4 -25 13 -30 13 -40 1 -9 -12 -12 -12 -22 2 -7 9 -10 11 -7 4 7 -13 -20
-12 -42 1 -8 5 -13 4 -13 -2 0 -10 -64 -6 -82 5 -4 2 -10 -1 -14 -7 -4 -8 -3
-9 4 -5 7 4 12 2 12 -3 0 -14 -2 -14 -36 4 -25 13 -30 13 -40 1 -9 -12 -12
-12 -22 2 -7 9 -10 11 -7 4 7 -13 -20 -12 -42 1 -8 5 -13 4 -13 -2 0 -10 -64
-6 -82 5 -4 2 -10 -1 -14 -7 -4 -8 -3 -9 4 -5 7 4 12 2 12 -3 0 -14 -2 -14
-36 4 -25 13 -30 13 -40 1 -9 -12 -12 -12 -22 2 -7 9 -10 11 -7 4 7 -13 -20
-12 -42 1 -8 5 -13 4 -13 -2 0 -10 -64 -6 -82 5 -4 2 -10 -1 -14 -7 -4 -8 -3
-9 4 -5 7 4 12 2 12 -3 0 -14 -2 -14 -36 4 -25 13 -30 13 -40 1 -9 -12 -12
-12 -22 2 -7 9 -10 11 -7 4 7 -13 -20 -12 -42 1 -8 5 -13 4 -13 -2 0 -10 -64
-6 -82 5 -4 2 -10 -1 -14 -7 -4 -8 -3 -9 4 -5 7 4 12 2 12 -3 0 -14 -2 -14
-36 4 -25 13 -30 13 -40 1 -9 -12 -12 -12 -22 2 -7 9 -10 11 -7 4 7 -13 -20
-12 -42 1 -8 5 -13 4 -13 -2 0 -10 -64 -6 -82 5 -4 2 -10 -1 -14 -7 -4 -8 -3
-9 4 -5 7 4 12 2 12 -3 0 -14 -2 -14 -36 4 -25 13 -30 13 -38 1 -9 -12 -12
-12 -24 2 -7 9 -11 11 -7 4 7 -13 -20 -12 -42 1 -7 5 -13 4 -13 -1 0 -5 -34
-8 -75 -6 -54 1 -73 -1 -68 -9 4 -7 -1 -6 -10 2 -9 7 -24 11 -32 7 -8 -3 -15
0 -15 7 0 8 -3 8 -8 1 -8 -12 -52 -14 -52 -1 0 4 -5 5 -10 2 -6 -4 -7 -12 -3
-18 4 -7 -1 -6 -10 2 -10 8 -20 11 -24 8 -3 -4 -13 -1 -21 6 -13 9 -14 9 -8 0
9 -16 -35 -13 -46 2 -5 7 -8 7 -9 0z"/>
</g>
</svg>
